<?xml version="1.0" encoding="UTF-8" standalone="no"?>
<!DOCTYPE svg PUBLIC "-//W3C//DTD SVG 1.1//EN" "http://www.w3.org/Graphics/SVG/1.1/DTD/svg11.dtd">
<svg width="100%" height="100%" viewBox="0 0 1660 317" version="1.1" xmlns="http://www.w3.org/2000/svg" xmlns:xlink="http://www.w3.org/1999/xlink" xml:space="preserve" xmlns:serif="http://www.serif.com/" style="fill-rule:evenodd;clip-rule:evenodd;stroke-linejoin:round;stroke-miterlimit:2;">
    <g transform="matrix(1,0,0,1,-180.881,-865.148)">
        <g id="text" transform="matrix(4.16667,0,0,4.16667,0,0)">
            <g>
                <g transform="matrix(1,0,0,1,132.86,271.245)">
                    <g>
                        <path d="M25.542,-38.437C30.583,-38.437 34.146,-36.969 36.229,-34.042C38.313,-31.125 39.354,-26.156 39.354,-19.146C39.354,-12.172 37.948,-7.109 35.146,-3.958C32.354,-0.802 27.833,0.771 21.583,0.771C17.969,0.771 14.609,0.589 11.5,0.229C8.401,-0.13 5.656,-0.667 3.271,-1.375L3.271,-50.729L14.729,-50.729L14.729,-35.687C16.448,-36.562 18.234,-37.234 20.083,-37.708C21.943,-38.193 23.76,-38.437 25.542,-38.437ZM27.917,-19.146C27.917,-22.854 27.531,-25.276 26.771,-26.417C26.005,-27.568 24.229,-28.146 21.438,-28.146C20.271,-28.146 19.109,-28.042 17.958,-27.833C16.818,-27.635 15.74,-27.359 14.729,-27L14.729,-10.292C15.479,-10.135 16.339,-10.021 17.313,-9.937C18.281,-9.865 19.427,-9.833 20.75,-9.833C23.792,-9.833 25.74,-10.401 26.604,-11.542C27.479,-12.693 27.917,-15.229 27.917,-19.146Z" style="fill:rgb(94,23,235);fill-rule:nonzero;"/>
                    </g>
                </g>
                <g transform="matrix(1,0,0,1,174.12,271.245)">
                    <g>
                        <path d="M12.438,0.771C8.573,0.771 5.74,-0.193 3.938,-2.125C2.13,-4.068 1.229,-7.125 1.229,-11.292C1.229,-15.552 2.302,-18.547 4.458,-20.271C6.625,-22.005 10.354,-22.875 15.646,-22.875C16.854,-22.875 18.104,-22.812 19.396,-22.687C20.698,-22.562 21.839,-22.396 22.813,-22.187L22.813,-24.937C22.813,-26.156 22.292,-27.062 21.25,-27.646C20.208,-28.229 18.615,-28.521 16.479,-28.521C14.031,-28.521 11.854,-28.458 9.938,-28.333C8.031,-28.208 6.297,-27.99 4.729,-27.687L4.729,-37.062C6.604,-37.521 8.781,-37.859 11.271,-38.083C13.771,-38.318 16.672,-38.437 19.979,-38.437C24.656,-38.437 28.208,-37.396 30.625,-35.312C33.042,-33.229 34.25,-30.151 34.25,-26.083L34.25,0L23.563,0L23.188,-3.208L22.958,-3.208C21.375,-1.984 19.646,-1.01 17.771,-0.292C15.896,0.417 14.115,0.771 12.438,0.771ZM17.167,-15.333C15.125,-15.333 13.75,-15.115 13.042,-14.687C12.333,-14.255 11.979,-13.354 11.979,-11.979C11.979,-10.698 12.271,-9.818 12.854,-9.333C13.438,-8.859 14.464,-8.625 15.938,-8.625C17.063,-8.625 18.229,-8.776 19.438,-9.083C20.656,-9.385 21.781,-9.771 22.813,-10.229L22.813,-14.875C22.198,-15.026 21.438,-15.135 20.521,-15.208C19.604,-15.292 18.484,-15.333 17.167,-15.333Z" style="fill:rgb(94,23,235);fill-rule:nonzero;"/>
                    </g>
                </g>
                <g transform="matrix(1,0,0,1,211.49,271.245)">
                    <g>
                        <path d="M18.604,-28.75C16.479,-28.75 15.042,-28.583 14.292,-28.25C13.552,-27.927 13.188,-27.177 13.188,-26C13.188,-25.542 13.323,-25.172 13.604,-24.896C13.896,-24.615 14.292,-24.458 14.792,-24.417L23.875,-23.187C26.818,-22.781 28.885,-21.833 30.083,-20.333C31.276,-18.833 31.875,-16.448 31.875,-13.187C31.875,-8.312 30.776,-4.76 28.583,-2.542C26.401,-0.333 22.594,0.771 17.167,0.771C14.167,0.771 11.458,0.651 9.042,0.417C6.625,0.193 4.573,-0.125 2.896,-0.542L2.896,-10.458C4.172,-10.151 5.938,-9.88 8.188,-9.646C10.448,-9.422 12.755,-9.312 15.104,-9.312C17.188,-9.312 18.594,-9.526 19.333,-9.958C20.068,-10.385 20.438,-11.214 20.438,-12.437C20.438,-12.839 20.313,-13.177 20.063,-13.458C19.813,-13.734 19.479,-13.901 19.063,-13.958L9.688,-15.187C6.938,-15.531 4.938,-16.531 3.688,-18.187C2.448,-19.839 1.833,-22.292 1.833,-25.542C1.833,-29.818 3.177,-33.031 5.875,-35.187C8.568,-37.354 12.563,-38.437 17.854,-38.437C19.938,-38.437 21.865,-38.38 23.646,-38.271C25.422,-38.172 27.302,-37.979 29.292,-37.687L29.292,-28.146C28.01,-28.354 26.427,-28.505 24.542,-28.604C22.667,-28.698 20.688,-28.75 18.604,-28.75Z" style="fill:rgb(94,23,235);fill-rule:nonzero;"/>
                    </g>
                </g>
                <g transform="matrix(1,0,0,1,245.047,271.245)">
                    <g>
                        <path d="M34.479,-11.146L34.479,-2.062C33.255,-1.297 31.193,-0.63 28.292,-0.062C25.401,0.49 22.354,0.771 19.146,0.771C13.047,0.771 8.651,-0.76 5.958,-3.833C3.26,-6.917 1.917,-11.917 1.917,-18.833C1.917,-25.594 3.339,-30.552 6.188,-33.708C9.031,-36.859 13.531,-38.437 19.688,-38.437C25.688,-38.437 29.917,-37.255 32.375,-34.896C34.844,-32.531 36.083,-28.354 36.083,-22.354C36.083,-20.729 36.052,-19.427 36,-18.458C35.943,-17.484 35.839,-16.365 35.688,-15.104L13.417,-15.104C13.469,-13.021 14.031,-11.568 15.104,-10.75C16.172,-9.943 18.13,-9.542 20.979,-9.542C23.422,-9.542 25.917,-9.698 28.458,-10.021C31,-10.354 33.005,-10.729 34.479,-11.146ZM19.688,-28.687C17.24,-28.687 15.583,-28.26 14.708,-27.417C13.844,-26.583 13.417,-24.943 13.417,-22.5L25.708,-22.5L25.708,-24.187C25.651,-25.964 25.229,-27.156 24.438,-27.771C23.656,-28.38 22.073,-28.687 19.688,-28.687Z" style="fill:rgb(94,23,235);fill-rule:nonzero;"/>
                    </g>
                </g>
                <g transform="matrix(1,0,0,1,283.103,271.245)">
                    <g>
                        <path d="M2.292,12.354C1.583,12.354 0.927,12.339 0.333,12.313C-0.25,12.281 -1.505,12.146 -3.438,11.896L-3.438,2.438C-3.229,2.49 -2.99,2.521 -2.729,2.521L-1.688,2.521C0.563,2.521 2.042,2.229 2.75,1.646C3.458,1.063 3.813,-0.094 3.813,-1.833L3.813,-37.687L15.25,-37.687L15.25,-0.312C15.25,3.813 14.13,6.948 11.896,9.104C9.656,11.271 6.458,12.354 2.292,12.354Z" style="fill:rgb(94,23,235);"/>
                    </g>
                </g>
                <g transform="matrix(1,0,0,1,301.636,271.245)">
                    <g>
                        <path d="M15.854,0.771C11.589,0.771 8.401,-0.281 6.292,-2.396C4.177,-4.505 3.125,-7.698 3.125,-11.979L3.125,-37.687L14.563,-37.687L14.563,-13.5C14.563,-12.219 14.943,-11.302 15.708,-10.75C16.469,-10.193 17.693,-9.917 19.375,-9.917C20.333,-9.917 21.359,-9.99 22.458,-10.146C23.552,-10.297 24.656,-10.526 25.771,-10.833L25.771,-37.687L37.229,-37.687L37.229,0L26.542,0L26.229,-2.062L26.083,-2.062C24.302,-1.198 22.51,-0.51 20.708,0C18.901,0.51 17.281,0.771 15.854,0.771Z" style="fill:rgb(94,23,235);fill-rule:nonzero;"/>
                    </g>
                </g>
                <g transform="matrix(1,0,0,1,342.133,271.245)">
                    <g>
                        <path d="M14.729,0L3.271,0L3.271,-37.687L13.958,-37.687L14.333,-34.854L14.563,-34.854C16.448,-36.021 18.255,-36.906 19.979,-37.521C21.714,-38.13 23.365,-38.437 24.938,-38.437C27.021,-38.437 28.797,-38.115 30.271,-37.479C31.755,-36.854 32.927,-35.901 33.792,-34.625L34.083,-34.625C35.818,-35.792 37.76,-36.714 39.917,-37.396C42.083,-38.089 44.156,-38.437 46.146,-38.437C49.854,-38.437 52.609,-37.417 54.417,-35.375C56.219,-33.344 57.125,-30.25 57.125,-26.083L57.125,0L45.688,0L45.688,-24.562C45.688,-25.823 45.323,-26.734 44.604,-27.292C43.896,-27.859 42.781,-28.146 41.271,-28.146C40.448,-28.146 39.583,-28.068 38.667,-27.917C37.75,-27.76 36.833,-27.531 35.917,-27.229L35.917,0L24.479,0L24.479,-24.562C24.479,-25.823 24.125,-26.734 23.417,-27.292C22.708,-27.859 21.589,-28.146 20.063,-28.146C19.24,-28.146 18.375,-28.068 17.458,-27.917C16.542,-27.76 15.63,-27.531 14.729,-27.229L14.729,0Z" style="fill:rgb(94,23,235);fill-rule:nonzero;"/>
                    </g>
                </g>
                <g transform="matrix(1,0,0,1,402.383,271.245)">
                    <g>
                        <path d="M14.729,11.583L3.271,11.583L3.271,-37.687L13.354,-37.687L13.958,-34.167L14.104,-34.167C15.479,-35.594 17.115,-36.667 19.021,-37.375C20.938,-38.083 23.109,-38.437 25.542,-38.437C30.526,-38.437 34.073,-36.937 36.188,-33.937C38.297,-30.937 39.354,-25.901 39.354,-18.833C39.354,-11.969 38.021,-6.984 35.354,-3.875C32.688,-0.776 28.354,0.771 22.354,0.771C20.88,0.771 19.49,0.677 18.188,0.5C16.896,0.318 15.74,0.073 14.729,-0.229L14.729,11.583ZM27.917,-18.833C27.917,-22.651 27.505,-25.156 26.688,-26.354C25.88,-27.547 24.13,-28.146 21.438,-28.146C20.115,-28.146 18.88,-28.042 17.729,-27.833C16.589,-27.635 15.589,-27.333 14.729,-26.917L14.729,-10.833C15.479,-10.469 16.344,-10.214 17.333,-10.062C18.333,-9.906 19.469,-9.833 20.75,-9.833C23.844,-9.833 25.813,-10.38 26.646,-11.479C27.49,-12.573 27.917,-15.026 27.917,-18.833Z" style="fill:rgb(94,23,235);fill-rule:nonzero;"/>
                    </g>
                </g>
            </g>
        </g>
        <g id="stars">
            <g transform="matrix(4.16667,0,0,4.16667,0,0)">
                <path d="M79.313,226.693L76.26,227.464C73.474,228.172 71.292,230.839 70.719,234.25L70.083,237.979L69.453,234.25C68.875,230.839 66.698,228.172 63.911,227.464L60.859,226.693L63.911,225.922C66.698,225.214 68.875,222.552 69.453,219.141L70.083,215.406L70.719,219.141C71.292,222.552 73.474,225.214 76.26,225.922L79.313,226.693Z" style="fill:rgb(94,23,235);fill-rule:nonzero;"/>
            </g>
            <g transform="matrix(4.16667,0,0,4.16667,0,0)">
                <path d="M66.188,251.906L62.453,252.307C60.677,252.677 59.286,254.063 58.917,255.839L58.516,261.182L58.115,255.839C57.75,254.063 56.359,252.677 54.583,252.307L51.141,251.906L54.583,251.505C56.359,251.135 57.75,249.75 58.115,247.974L58.516,240.979L58.917,247.974C59.286,249.75 60.677,251.135 62.453,251.505L66.188,251.906Z" style="fill:rgb(94,23,235);fill-rule:nonzero;"/>
            </g>
            <g transform="matrix(4.16667,0,0,4.16667,-10,-10)">
                <path d="M95.036,223.484L94.25,223.703C93.531,223.906 92.969,224.661 92.823,225.635L92.656,226.693L92.495,225.635C92.349,224.661 91.786,223.906 91.068,223.703L90.276,223.484L91.068,223.266C91.786,223.068 92.349,222.307 92.495,221.339L92.656,220.276L92.823,221.339C92.969,222.307 93.531,223.068 94.25,223.266L95.036,223.484Z" style="fill:rgb(94,23,235);fill-rule:nonzero;"/>
            </g>
            <g transform="matrix(4.16667,0,0,4.16667,0,0)">
                <path d="M47.313,231.672L46.667,231.849C46.078,232.016 45.615,232.635 45.495,233.427L45.359,234.297L45.229,233.427C45.104,232.635 44.646,232.016 44.057,231.849L43.411,231.672L44.057,231.49C44.646,231.328 45.104,230.708 45.229,229.911L45.359,229.042L45.495,229.911C45.615,230.708 46.078,231.328 46.667,231.49L47.313,231.672Z" style="fill:rgb(94,23,235);fill-rule:nonzero;"/>
            </g>
            <g transform="matrix(4.16667,0,0,4.16667,0,0)">
                <path d="M61.349,211.25L60.458,211.5C59.651,211.724 59.016,212.578 58.849,213.672L58.661,214.87L58.479,213.672C58.313,212.578 57.677,211.724 56.87,211.5L55.979,211.25L56.87,211.005C57.677,210.776 58.313,209.922 58.479,208.828L58.661,207.635L58.849,208.828C59.016,209.922 59.651,210.776 60.458,211.005L61.349,211.25Z" style="fill:rgb(94,23,235);fill-rule:nonzero;"/>
            </g>
            <g transform="matrix(4.16667,0,0,4.16667,0,0)">
                <path d="M85.62,213.01L85.188,213.135C84.797,213.245 84.484,213.661 84.406,214.193L84.318,214.776L84.224,214.193C84.146,213.661 83.839,213.245 83.443,213.135L83.01,213.01L83.443,212.891C83.839,212.781 84.146,212.365 84.224,211.833L84.318,211.25L84.406,211.833C84.484,212.365 84.797,212.781 85.188,212.891L85.62,213.01Z" style="fill:rgb(94,23,235);fill-rule:nonzero;"/>
            </g>
        </g>
        <g id="parachute" transform="matrix(0.27872,-0.27872,0.27872,0.27872,131.39,1080.38)">
            <path d="M519.545,615.822C511.303,613.022 514.02,607.345 515.982,601.917C519.299,602.134 521.886,603.975 525.445,603.205C529.569,604.073 530.814,606.301 529.769,609.91C533.057,610.3 535.315,612.036 536.194,614.591C538.665,621.787 542.155,627.89 549.339,631.529C550.771,629.854 552.497,629.073 554.907,628.746C556.236,628.846 556.928,629.134 557.937,629.995C558.07,630.167 558.198,630.339 558.322,630.511C558.675,630.342 559.071,630.187 559.529,630.003C559.739,629.848 559.901,629.718 560.055,629.596C556.962,624.975 556.557,620.257 557.223,614.768C563.844,605.36 572.688,604.544 579.779,612.41C579.596,618.479 582.805,625.015 576.074,629.729C575.927,629.636 575.789,629.54 575.658,629.441C575.112,630.165 574.829,630.501 574.424,631.145C574.396,631.18 574.367,631.215 574.339,631.249C575.004,631.312 575.514,631.245 576.283,631.171C576.333,631.262 576.38,631.352 576.424,631.443C576.537,631.216 576.65,630.987 576.762,630.753C578.22,629.47 579.447,629.183 581.345,629.078C583.678,629.383 585.049,630.18 586.234,632.17C586.339,632.59 586.433,633.01 586.517,633.429C589.725,632.297 591.875,634.782 593.394,636.969C597.612,643.041 602.049,645.213 608.352,639.994C609.137,639.343 610.329,639.349 611.821,639.434C611.01,637.06 612.184,635.347 614.835,633.863C618.22,635.889 621.222,634.285 624.642,634.031C629.608,638.23 627.551,644.329 619.957,647.818C619.787,647.689 619.619,647.559 619.454,647.428C616.937,655.814 611.844,661.452 604.415,664.877C598.9,667.422 593.908,665.883 589.129,661.856C589.003,663.528 588.903,664.868 588.719,666.722C588.578,666.788 588.439,666.851 588.303,666.911C589.165,669.218 589.681,671.158 590.195,673.6C590.145,674.006 590.07,674.383 589.972,674.733C594.055,681.025 597.678,687.516 601.36,694.479C601.216,694.626 601.072,694.771 600.928,694.916C611.657,708.037 614.318,723.156 613.014,739.566C612.749,739.814 612.485,740.046 612.221,740.262C614.41,743.135 616.124,745.92 617.663,748.798C619.316,751.888 621.118,755.576 617.783,758.179C614.487,760.748 610.786,758.489 608.732,755.826C605.049,751.048 601.118,746.333 598.785,740.146C598.946,740.129 599.106,740.112 599.267,740.097C595.504,736.296 594.305,731.975 592.975,727.703C590.784,720.674 588.474,713.689 584.553,706.826C584.668,706.606 584.786,706.389 584.906,706.176C580.54,702.935 579.433,697.649 575.439,693.931C575.401,693.778 575.363,693.627 575.325,693.477C572.869,695.527 570.287,695.911 567.283,696.51C567.027,696.4 566.788,696.283 566.567,696.159C559.888,706.4 555.117,716.855 553.87,729.314C553.658,729.526 553.451,729.719 553.248,729.895C553.811,733.253 554.955,736.682 552.831,740.389C552.691,740.716 552.552,741.03 552.414,741.331C553.171,741.867 553.964,742.826 553.764,743.128C549.976,748.848 549.632,756.449 544.103,761.145C542.396,762.594 540.4,763.661 537.816,762.184C535.023,760.585 535.74,758.062 536.137,756.091C536.9,752.303 538.384,748.66 539.81,744.509C539.964,744.487 540.118,744.469 540.272,744.454C536.62,742.183 535.661,739.386 535.826,735.636C536.114,729.065 535.928,722.473 536.035,715.243C536.205,715.046 536.366,714.838 536.519,714.623C534.668,709.908 538.853,706.712 539.465,702.296C539.85,701.933 540.237,701.575 540.626,701.222C542.608,693.232 546.183,685.688 549.83,677.692C550.009,677.687 550.187,677.683 550.365,677.679C550.319,677.629 550.272,677.578 550.226,677.527C547.19,674.671 549.146,672.146 549.954,669.115C550.154,668.962 550.342,668.809 550.519,668.655C549.028,662.998 548.509,657.313 546.804,652.01C545.536,648.059 541.087,648.062 537.549,647.845C526.102,647.14 526.1,647.221 522.923,635.662C521.251,629.573 519.503,623.499 519.263,616.546C519.35,616.294 519.445,616.053 519.545,615.822Z" style="fill:white;stroke:white;stroke-width:7px;"/>
            <g transform="matrix(1.39247,0,0,1.39247,198.938,113.078)">
                <g>
                    <g>
                        <g>
                            <path d="M225.203,322.689C201.712,304.538 178.612,286.231 155.458,267.991C137.052,253.49 118.582,239.072 99.986,224.302C99.486,223.488 98.892,223.515 98.201,223.135C97.997,222.956 98.037,222.96 98.04,222.979C97.79,222.786 97.551,222.561 97.154,222.142C96.985,221.962 97.046,221.975 97.039,222.006C96.597,221.58 95.992,221.512 95.208,221.148C94.983,220.955 95.043,220.956 95.044,220.986C94.796,220.794 94.557,220.563 94.159,220.137C93.992,219.952 94.048,219.954 94.048,219.981C93.795,219.792 93.554,219.563 93.156,219.138C92.987,218.954 93.044,218.952 93.045,218.981C92.341,218.217 91.378,217.826 90.239,217.15C90.013,216.939 90.048,216.949 90.054,216.966C89.618,216.6 89.478,215.989 88.778,215.466C87.84,214.965 87.108,214.703 86.216,214.131C86.004,213.932 86.001,213.996 86.032,213.99C76.38,205.675 65.909,198.382 55.819,190.598C50.176,186.246 44.586,181.819 38.835,177.606C37.349,176.517 36.013,175.267 35.411,173.031C35.815,170.185 37.532,169.186 40.177,168.815C43.069,169.338 45.139,170.718 47.081,172.288C60.368,183.03 73.991,193.347 87.506,204.357C89.114,206.198 91.16,206.91 92.868,208.616C94.783,210.722 97.219,211.628 99.205,213.627C100.696,214.45 101.648,215.4 102.816,216.607C105.999,218.787 108.663,221.102 111.696,223.478C113.1,225.352 115.108,225.935 116.731,227.527C118.111,228.804 119.662,229.264 121.045,230.563C129.304,235.629 136.172,241.974 143.505,247.689C165.547,264.869 187.354,282.349 209.405,299.519C210.197,300.136 210.855,300.889 211.056,301.082C190.333,271.913 169.27,242.12 148.067,212.002C146.516,208.346 144.181,205.564 142.113,202.246C140.629,200.947 140.356,199.217 138.926,197.87C136.525,194.669 134.278,191.77 132.287,188.3C130.855,187.016 130.122,185.623 129.029,184.087C127.06,182.344 126.485,180.091 124.98,178.047C123.146,176.151 122.202,174.052 120.695,171.915C110.272,157.995 100.585,143.979 90.854,129.995C90.1,128.912 89.634,127.643 89.612,125.886C89.73,124.973 89.921,124.482 90.454,123.708C91.597,122.667 92.636,122.404 94.146,122.396C97.891,123.256 99.38,126.085 101.246,128.564C103.708,131.834 106.007,135.217 108.661,138.783C110.454,141.049 111.615,143.313 113.268,145.651C114.827,148.221 116.677,150.181 118.165,152.799C120.205,155.572 122.197,157.97 123.965,160.941C126.019,163.482 127.744,165.845 129.335,168.708C131.432,171.504 133.442,173.95 135.366,176.892C142.385,186.268 148.35,195.988 155.894,204.993C175.909,232.65 195.16,260.415 214.771,287.924C218.249,292.802 221.681,297.705 224.438,303.341C224.902,303.726 225.027,303.931 224.96,304.174C224.921,303.88 224.77,303.645 224.329,303.189C220.478,297.403 219.061,290.999 217.141,284.834C207.744,254.663 198.032,224.591 188.642,194.418C188.192,192.973 188.144,191.47 187.529,189.681C184.122,176.447 179.285,164.054 175.741,150.871C174.251,147.49 173.562,144.273 172.708,140.714C171.429,137.349 170.161,134.373 169.536,130.804C168.1,127.775 167.495,124.876 166.699,121.652C165.538,118.559 164.368,115.857 163.686,112.606C162.409,109.534 161.739,106.651 160.691,103.493C159.425,99.713 158.178,96.318 157.869,92.267C157.974,90.995 158.336,90.243 159.172,89.261C161.332,87.52 163.216,87.518 165.44,89.101C171.007,101.472 173.923,114.344 178.344,127.112C178.761,130 180.142,132.21 180.556,135.082C181.393,138.024 182.808,140.387 183.308,143.447C184.13,146.114 184.99,148.392 185.448,151.156C186.514,153.479 187.304,155.516 187.827,158.028C188.689,160.927 189.719,163.397 190.38,166.367C190.815,168.93 192.363,170.743 192.587,173.382C194.783,177.842 195.183,182.561 197.532,187C202.058,199.577 205.768,212.002 209.625,224.372C216.056,245 222.731,265.551 229.02,286.223C230.256,290.286 230.728,294.458 231.118,297.279C228.268,286.628 231.136,274.283 229.039,262.208C228.869,261.228 228.87,260.216 228.897,259.219C229.476,237.434 227.248,215.693 227.871,193.911C228.023,188.596 225.99,183.378 227.331,177.616C227.967,172.719 227.909,168.244 227.298,163.345C226.746,160.9 226.909,158.864 227.109,156.389C226.81,153.302 226.891,150.661 227.175,147.586C226.715,144.818 226.852,142.492 227.194,139.735C226.968,136.735 226.774,134.163 226.464,131.165C225.679,128.105 225.887,125.45 226.166,122.344C225.716,119.178 226.013,116.463 226.114,113.289C226.029,103.158 225.167,93.499 225.741,83.355C227.507,80.215 229.771,79.263 233.194,80.543C235.044,82.253 235.104,84.11 235.123,85.941C235.199,93.422 235.413,100.904 234.958,108.844C234.691,112.917 236.183,116.4 235.776,120.469C236.288,122.979 236.013,125.045 235.824,127.554C236.068,130.35 236.251,132.705 235.897,135.505C236.067,138.571 236.312,141.199 235.815,144.256C235.875,147.586 236.947,150.376 236.779,153.734C237.436,156.819 236.941,159.464 236.846,162.555C237.46,167.192 236.932,171.439 237.602,176.09C238.029,178.014 238.215,179.507 238.166,181.004C237.556,199.463 239.047,217.88 239.378,236.321C239.782,258.898 240.246,281.486 241.191,304.056C241.315,307.038 241.352,310.045 240.645,313.41C239.856,315.353 238.582,316.401 237.073,316.16C231.47,315.266 228.15,318.18 225.203,322.689Z" style="fill:rgb(128,128,128);fill-rule:nonzero;"/>
                            <path d="M434.352,209.795C433.676,210.597 433.19,211.202 432.427,211.907C431.864,212.212 431.592,212.433 431.162,212.87C430.992,213.071 430.995,212.997 431.032,212.998C430.807,213.21 430.559,213.437 430.172,213.879C430.018,214.079 430.009,214.014 430.041,214.022C429.709,214.299 429.303,214.473 428.574,214.733C420.132,222.095 412.021,229.331 403.8,236.441C395.477,243.639 387.049,250.717 378.659,257.839C367.893,266.979 357.082,276.068 346.359,285.259C338.249,292.209 330.245,299.282 322.198,306.305C316.35,311.408 310.51,316.519 304.372,321.771C299.483,318.329 294.563,316.16 288.557,318.001C287.671,318.272 286.697,317.528 285.819,316.352C284.106,310.146 284.13,304.073 284.081,298.216C283.959,283.44 282.839,268.708 282.763,253.94C282.645,231.05 280.702,208.209 280.786,185.312C280.796,182.655 280.729,179.996 281.046,176.878C280.52,169.958 281.216,163.453 280.214,156.561C279.712,151.789 279.652,147.474 280.075,142.696C279.64,137.419 280.028,132.564 279.443,127.294C278.474,121.946 278.751,117.026 279.075,111.647C278.562,105.416 279.114,99.601 278.36,93.365C277.868,89.028 277.186,85.15 279.169,80.988C281.745,78.987 283.954,79.159 286.471,81.129C289.055,86.096 288.034,90.957 287.934,96.209C288.356,101.828 287.96,107.018 288.635,112.62C289.447,117.693 289.276,122.326 288.931,127.423C289.261,132.464 289.259,137.049 289.118,142.09C290.442,146.999 290.299,151.538 289.911,156.541C290.646,163.207 289.535,169.514 290.85,176.14C291.967,202.304 292.441,228.058 293.517,253.774C294.051,266.535 293.009,279.376 294.957,292.091C295.359,294.714 294.384,297.355 293.975,299.972C296.741,282.999 302.401,266.769 306.92,250.252C312.62,229.415 318.306,208.569 324.704,187.525C326.172,185.143 326.006,182.636 327.21,180.18C327.399,177.245 328.586,174.998 329.479,172.28C329.958,169.199 331.076,166.723 332.218,163.872C332.368,160.974 333.138,158.624 334.28,155.991C334.613,153.149 335.371,150.806 336.341,148.14C336.251,145.408 337.463,143.435 338.359,140.977C338.863,138.092 339.669,135.68 340.526,132.878C343.465,121.474 346.627,110.536 349.715,99.578C350.211,97.818 350.836,96.114 352.527,94.53C355.061,93.335 356.903,93.909 358.74,95.922C359.544,97.706 359.773,99.23 359.369,100.671C356.241,111.825 353.772,123.169 349.666,134.451C349.213,137.388 348.591,139.875 347.59,142.656C346.938,145.197 346.351,147.365 345.702,149.906C344.279,152.477 344.381,155.05 343.638,157.794C341.655,160.649 342.223,163.939 340.661,166.925C340.094,169.72 339.494,172.12 338.513,174.798C338.104,177.635 337.144,179.946 336.513,182.728C336.219,185.131 335.466,187.023 334.782,189.336C332.364,202.469 328.143,214.727 324.715,227.189C318.426,250.053 311.989,272.878 305.558,295.704C304.749,298.574 303.564,301.317 302.067,304.25C301.877,304.818 301.777,305.038 301.771,305.042C305.031,296.696 310.842,290.152 315.651,283.018C331.831,259.012 348.204,235.135 364.611,211.281C365.744,209.635 366.914,208.024 368.641,206.418C376.406,195.426 383.491,184.392 391.375,173.497C394.11,169.085 396.884,165.108 399.663,160.724C402.716,156.59 405.587,152.749 408.34,148.411C410.483,144.679 412.953,141.595 415.512,138.146C418.514,134.205 419.966,129.402 424.944,127.214C427.435,127.492 428.614,128.805 429.266,131.138C428.735,137.063 424.584,140.683 421.745,145.402C419.044,149.59 416.307,153.321 413.414,157.363C411.101,160.906 408.993,164.171 406.549,167.624C403.739,171.679 401.079,175.422 398.351,179.541C391.515,190.294 383.769,200.025 377.437,211.113C362.17,234.122 346.573,256.483 331.221,279.011C326.371,286.127 321.892,293.512 317.539,298.938C343.733,276.368 371.224,252.775 399.092,229.084C408.632,222.269 416.717,214.255 425.479,207.05C427.384,205.484 429.255,203.881 431.425,202.121C434.667,198.721 438.343,196.349 441.809,193.2C445.576,190.14 448.651,186.772 452.76,184.138C455.838,180.615 459.503,178.258 462.888,175.065C467.967,170.193 473.215,166.072 478.916,161.927C481.541,161.337 483.444,161.97 485.174,164.042C486.252,167.315 483.989,168.511 482.221,169.939C475.403,175.446 468.681,181.067 461.772,187.004C459.026,188.484 457.433,190.739 455.224,192.806C454.994,193.051 454.99,192.989 455.021,192.993C453.302,193.917 451.726,195.062 450.218,196.819C449.996,197.06 449.993,196.992 450.027,196.992C449.804,197.209 449.558,197.438 449.158,197.87C448.993,198.061 448.992,197.992 449.027,197.993C448.803,198.209 448.558,198.438 448.16,198.87C447.996,199.061 447.994,198.994 448.027,198.996C447.803,199.211 447.558,199.438 447.165,199.872C447.004,200.064 446.998,200.003 447.028,200.011C446.587,200.42 445.983,200.487 445.205,200.869C444.985,201.069 444.992,200.993 445.029,200.995C444.805,201.21 444.558,201.438 444.161,201.874C443.999,202.067 443.998,201.998 444.032,201.998C443.806,202.211 443.557,202.438 443.162,202.874C443,203.067 442.999,202.998 443.033,202.999C442.806,203.211 442.558,203.438 442.161,203.873C441.999,204.066 441.998,203.998 442.032,204C441.8,204.204 441.554,204.428 441.17,204.869C441.012,205.062 440.997,205.005 441.02,205.024C440.879,205.147 440.714,205.253 440.267,205.432C439.798,205.563 439.611,205.619 439.206,205.87C438.987,206.065 438.99,205.99 439.027,205.991C438.805,206.209 438.558,206.438 438.157,206.873C437.992,207.065 437.993,206.993 438.029,206.993C437.805,207.209 437.558,207.438 437.16,207.873C436.997,208.067 436.996,207.997 437.031,207.997C436.805,208.21 436.558,208.438 436.161,208.873C435.999,209.066 435.998,209.002 436.029,209.008C435.617,209.372 435.082,209.49 434.352,209.795Z" style="fill:rgb(128,128,128);fill-rule:nonzero;"/>
                            <path d="M275.234,371.793C274.035,371.999 273.116,372 271.739,372.031C271.051,372.186 270.822,372.31 270.211,372.348C269.607,371.774 269.563,371.269 269.861,370.401C273.723,367.105 271.845,363.146 271.966,359.157C273.308,351.875 276.751,345.769 279.199,339.294C279.806,337.688 280.858,336.455 282.689,335.401C286.85,333.28 290.999,332.538 295.6,332.077C298.102,340.99 300.177,349.823 302.314,358.64C303.492,363.503 304.775,368.341 306.041,373.598C304.304,376.765 301.923,376.77 298.945,375.288C296.391,372.57 296.185,369.31 295.406,366.312C293.452,358.796 291.628,351.246 289.523,342.908C286.087,350.431 283.578,357.628 280.47,364.559C279.289,367.193 278.861,370.446 275.234,371.793Z" style="fill:rgb(128,128,128);fill-rule:nonzero;"/>
                            <path d="M257.453,372.041C256.862,371.692 256.646,371.455 256.231,371.079C253.439,370.726 252.584,368.568 251.525,366.746C247.195,359.292 243.232,351.633 238.964,343.735C236.968,346.577 237.743,350.361 234.901,352.895C232.213,354.044 230.105,353.792 228.191,351.398C229.353,344.383 230.694,337.763 232.073,330.742C236.074,330.835 239.937,331.65 243.712,333.981C245.706,335.277 247.17,336.525 248.156,338.383C251.812,345.274 256.126,351.831 258.783,359.653C259.406,363.296 257.902,366.734 259.65,370.302C259.276,371.497 258.662,371.947 257.453,372.041Z" style="fill:rgb(128,128,128);fill-rule:nonzero;"/>
                        </g>
                        <path d="M233.051,81.069C230.822,80.894 229.28,81.699 227.494,82.767C225.192,85.279 222.566,86.405 219.607,87.241C204.871,91.402 189.95,93.961 174.57,93.128C171.245,92.948 167.949,92.72 164.85,90.198C163.235,88.851 161.94,88.797 160.284,89.805C158.569,89.599 157.513,88.627 157.348,87.305C156.489,80.443 156.189,73.58 158.893,66.996C159.314,65.971 160.186,65.102 161.561,64.197C178.823,57.777 196.211,53.64 214.397,51.004C216.548,49.988 218.454,50.759 220.622,50.314C220.992,50.171 221.42,50.024 221.645,49.997C223.909,48.98 226.093,49.772 228.564,49.318C228.941,49.179 229.372,49.034 229.599,49.022C232.862,47.92 236.016,48.808 239.501,48.322C243.049,46.613 246.424,47.016 250.17,47.091C251.984,47.926 252.999,49.072 252.948,50.683C252.74,57.289 254.839,63.785 253.67,70.842C253.327,71.833 253.091,72.374 252.512,73.211C246.457,77.264 240.657,80.95 233.051,81.069Z" style="fill:rgb(246,132,128);fill-rule:nonzero;"/>
                        <path d="M358.325,97.509C356.957,95.972 355.558,95.236 353.559,94.963C346.13,93.725 340.854,89.526 335.866,84.193C335.634,83.561 335.578,83.292 335.44,82.613C334.805,75.072 334.118,67.967 332.359,60.998C331.898,59.175 332.278,57.334 334.383,55.994C341.641,57.622 348.493,59.211 355.283,61.029C360.322,62.377 365.468,63.084 370.318,65.49C375.279,67.952 380.963,68.702 386.255,70.714C396.205,74.499 405.875,78.717 415.509,83.961C418.715,86.995 419.724,90.664 419.992,94.51C420.492,101.682 419.761,108.739 417.044,115.925C415.858,117.18 414.738,117.585 413.074,117.726C395.603,115.419 379.486,110.165 364.126,102.502C361.896,101.39 359.613,100.344 358.326,97.509L358.325,97.509Z" style="fill:rgb(246,132,128);fill-rule:nonzero;"/>
                        <path d="M415.512,116.147C417.847,105.536 419.02,95.279 415.854,84.565C429.644,90.276 441.879,98.967 453.671,108.265C463.664,116.143 473.631,124.11 483.018,132.686C492.305,141.172 496.843,153.112 488.418,165.924C487.127,166.521 486.273,166.339 485.317,165.344C483.434,164.42 481.738,163.792 479.706,163.154C477.345,163.295 475.447,162.996 473.571,162.089C459.748,155.406 446.318,148.08 434.355,138.339C432.311,136.674 430.016,135.195 428.864,132.23C428.18,130.243 426.918,129.163 425.329,127.936C419.331,126.146 417.101,121.605 415.512,116.147Z" style="fill:rgb(252,215,59);fill-rule:nonzero;"/>
                        <path d="M334.689,55.558C333.128,57.78 334.278,59.684 334.752,61.536C336.485,68.307 337.567,75.141 336.929,82.627C333.381,86.524 328.698,85.406 324.606,85.897C313.863,87.184 303.115,85.326 292.365,84.861C290.288,84.771 288.092,84.17 286.029,82.328C284.144,81.212 282.522,80.978 280.479,81.046C279.523,81.346 278.956,81.903 278.321,81.851C268.857,81.069 259.888,78.846 252.203,72.285C251.632,63.951 251.177,56.008 250.654,47.612C265.562,47.189 280.443,48.498 295.359,49.783C308.553,50.919 321.485,53.469 334.689,55.558Z" style="fill:rgb(252,215,59);fill-rule:nonzero;"/>
                        <path d="M161.537,63.955C158.841,72.126 158.156,80.555 159.826,89.551C159.736,90.398 159.473,90.875 159.098,91.598C158.504,94.183 157.432,96.104 155.569,97.711C139.554,111.525 120.377,118.619 100.308,123.833C98.842,124.214 97.338,124.008 95.502,123.548C94.082,123.665 93.033,123.862 91.594,124.15C90.732,124.103 90.123,124.067 89.883,123.646C85.855,116.569 83.41,109.152 85.373,100.498C90.541,95.618 96.512,92.535 102.275,89.497C121.223,79.511 140.351,69.787 161.537,63.955Z" style="fill:rgb(252,215,59);fill-rule:nonzero;"/>
                        <path d="M85.28,100.083C86.502,108.108 88.422,115.854 91.103,123.844C91.112,124.707 91.02,125.173 90.843,125.987C90.618,129.066 89.598,131.381 87.907,133.568C76.445,148.394 61.81,159.416 45.873,168.903C44.553,169.689 43.149,170.106 41.245,169.988C39.092,170.278 37.59,171.139 36.092,172.628C35.466,174.458 34.345,174.91 32.535,174.809C27.839,172.405 25.265,168.618 23.964,163.485C23.069,160.344 23.662,157.509 23.752,154.282C24.507,152.528 24.725,150.869 25.663,149.925C34.999,140.524 43.95,130.678 54.304,122.382C64.168,114.479 74.24,106.805 85.28,100.083Z" style="fill:rgb(246,132,128);fill-rule:nonzero;"/>
                        <path d="M286.646,316.561C288.414,316.519 289.857,316.294 291.238,315.869C297.878,313.822 300.576,314.982 303.896,321.62C304.639,327.502 300.824,329.811 296.322,332.005C292.497,335.596 287.833,335.7 282.993,336.572C270.171,339.205 257.847,339.181 245.184,335.638C240.424,334.845 236.118,334.032 232.416,330.614C228.285,329.614 225.761,327.514 224.903,323.198C226.102,314.543 229.528,312.505 238.599,314.852C241.188,312.814 243.729,313.589 246.087,314.166C257.656,316.995 269.289,317.786 281.056,315.656C282.873,315.327 284.673,315.024 286.646,316.561Z" style="fill:rgb(230,41,46);fill-rule:nonzero;"/>
                        <path d="M32.478,175.043C33.015,173.86 34.066,173.275 35.608,172.952C51.524,185.248 67.141,197.586 82.734,209.952C84.018,210.971 85.148,212.184 86.207,213.645C79.779,211.449 75.134,206.469 69.661,202.738C57.668,194.563 46.192,185.627 34.52,176.982C33.86,176.493 33.335,175.821 32.478,175.043Z" style="fill:rgb(230,41,46);fill-rule:nonzero;"/>
                        <path d="M484.984,165.353C485.923,165.303 486.717,165.559 487.798,165.946C481.974,173.029 473.919,177.704 467.086,183.829C465.466,185.281 464.187,187.5 461.391,188.06C460.885,187.902 460.732,187.698 460.734,187.143C468.873,179.748 476.856,172.703 484.984,165.353Z" style="fill:rgb(248,158,34);fill-rule:nonzero;"/>
                        <path d="M460.578,186.926C460.916,187.012 460.942,187.23 461.003,187.778C459.437,189.937 458.17,192.131 455.343,193.027C455.284,189.762 458.422,188.981 460.578,186.926Z" style="fill:rgb(251,193,46);fill-rule:nonzero;"/>
                        <path d="M450.342,197.029C450.303,194.463 452.375,193.64 454.703,192.86C453.939,194.703 452.737,196.313 450.342,197.029Z" style="fill:rgb(251,193,46);fill-rule:nonzero;"/>
                        <path d="M239.471,48.111C236.96,49.665 233.786,48.683 230.281,49.023C232.71,46.922 235.981,48.501 239.471,48.111Z" style="fill:rgb(247,159,91);fill-rule:nonzero;"/>
                        <path d="M23.59,154.069C23.959,156.633 23.963,159.411 23.954,162.65C22.111,160.297 23.191,157.247 23.59,154.069Z" style="fill:rgb(247,159,91);fill-rule:nonzero;"/>
                        <path d="M228.528,49.105C226.99,50.439 224.798,49.833 222.287,49.977C223.695,47.949 226.052,49.468 228.528,49.105Z" style="fill:rgb(247,159,91);fill-rule:nonzero;"/>
                        <path d="M220.582,50.098C219.345,51.316 217.452,50.939 215.229,51.022C216.311,49.064 218.395,50.38 220.582,50.098Z" style="fill:rgb(247,159,91);fill-rule:nonzero;"/>
                        <path d="M86.075,214.256C87.113,213.056 87.707,214.151 88.711,214.852C89.122,215.288 89.296,215.45 89.195,215.84C87.672,216.175 86.85,215.489 86.075,214.256Z" style="fill:rgb(230,41,46);fill-rule:nonzero;"/>
                        <path d="M90.094,217.267C91.491,216.324 92.176,217.438 93.011,218.654C91.784,219.158 90.91,218.518 90.094,217.267Z" style="fill:rgb(235,65,68);fill-rule:nonzero;"/>
                        <path d="M445.31,201.038C445.13,200.268 445.688,199.905 446.736,199.87C446.897,200.798 446.334,201 445.31,201.038Z" style="fill:rgb(251,193,46);fill-rule:nonzero;"/>
                        <path d="M95.079,221.268C95.716,220.586 96.273,220.939 96.918,221.717C96.413,221.884 95.794,221.732 95.079,221.268Z" style="fill:rgb(235,65,68);fill-rule:nonzero;"/>
                        <path d="M89.022,216.316C88.92,216.068 88.936,215.596 88.942,215.361C89.402,215.545 89.857,215.966 90.186,216.684C89.748,216.843 89.436,216.703 89.022,216.316Z" style="fill:rgb(235,65,68);fill-rule:nonzero;"/>
                        <path d="M428.586,214.951C428.704,214.583 429.115,214.251 429.8,213.974C429.968,214.714 429.589,215.057 428.586,214.951Z" style="fill:rgb(252,215,59);fill-rule:nonzero;"/>
                        <path d="M434.466,209.985C434.598,209.602 435.036,209.211 435.767,208.918C435.922,209.727 435.457,210.001 434.466,209.985Z" style="fill:rgb(252,215,59);fill-rule:nonzero;"/>
                        <path d="M98.074,223.248C98.532,223.117 99.067,223.278 99.718,223.712C99.272,223.837 98.712,223.688 98.074,223.248Z" style="fill:rgb(237,87,89);fill-rule:nonzero;"/>
                        <path d="M449.263,197.994C449.14,197.708 449.288,197.355 449.748,196.996C449.886,197.303 449.71,197.615 449.263,197.994Z" style="fill:rgb(251,193,46);fill-rule:nonzero;"/>
                        <path d="M448.266,198.994C448.136,198.697 448.276,198.333 448.739,197.981C448.886,198.305 448.711,198.616 448.266,198.994Z" style="fill:rgb(251,193,46);fill-rule:nonzero;"/>
                        <path d="M447.273,199.997C447.136,199.689 447.268,199.314 447.731,198.968C447.888,199.308 447.715,199.619 447.273,199.997Z" style="fill:rgb(251,193,46);fill-rule:nonzero;"/>
                        <path d="M93.043,219.229C93.341,219.101 93.695,219.248 94.049,219.702C93.732,219.841 93.415,219.672 93.043,219.229Z" style="fill:rgb(235,65,68);fill-rule:nonzero;"/>
                        <path d="M94.044,220.228C94.359,220.095 94.725,220.238 95.068,220.699C94.728,220.846 94.411,220.676 94.044,220.228Z" style="fill:rgb(235,65,68);fill-rule:nonzero;"/>
                        <path d="M430.287,214.008C430.168,213.738 430.317,213.397 430.768,213.028C430.898,213.312 430.726,213.624 430.287,214.008Z" style="fill:rgb(252,215,59);fill-rule:nonzero;"/>
                        <path d="M444.27,202.001C444.155,201.728 444.311,201.39 444.767,201.025C444.892,201.31 444.716,201.623 444.27,202.001Z" style="fill:rgb(251,193,46);fill-rule:nonzero;"/>
                        <path d="M97.043,222.233C97.32,222.115 97.654,222.268 98.015,222.71C97.729,222.835 97.415,222.67 97.043,222.233Z" style="fill:rgb(237,87,89);fill-rule:nonzero;"/>
                        <path d="M443.271,203.002C443.152,202.722 443.304,202.376 443.762,202.015C443.892,202.311 443.717,202.624 443.271,203.002Z" style="fill:rgb(251,193,46);fill-rule:nonzero;"/>
                        <path d="M442.271,204.001C442.149,203.716 442.299,203.366 442.758,203.008C442.892,203.312 442.717,203.624 442.271,204.001Z" style="fill:rgb(251,193,46);fill-rule:nonzero;"/>
                        <path d="M441.28,204.997C441.149,204.699 441.287,204.336 441.745,203.988C441.894,204.312 441.721,204.622 441.28,204.997Z" style="fill:rgb(251,193,46);fill-rule:nonzero;"/>
                        <path d="M439.243,206.02C439.161,205.723 439.335,205.382 439.758,204.88C440.148,204.909 440.29,205.099 440.217,205.57C439.834,205.893 439.666,205.934 439.243,206.02Z" style="fill:rgb(252,215,59);fill-rule:nonzero;"/>
                        <path d="M440.272,205.904C440.004,205.664 440.006,205.476 440.008,205.004C440.207,204.684 440.408,204.649 440.826,204.828C440.876,205.347 440.709,205.651 440.272,205.904Z" style="fill:rgb(251,193,46);fill-rule:nonzero;"/>
                        <g>
                            <path d="M438.262,206.996C438.157,206.737 438.321,206.409 438.775,206.036C438.887,206.303 438.71,206.615 438.262,206.996Z" style="fill:rgb(252,215,59);fill-rule:nonzero;"/>
                            <path d="M437.266,207.997C437.154,207.728 437.31,207.39 437.766,207.023C437.888,207.305 437.712,207.616 437.266,207.997Z" style="fill:rgb(252,215,59);fill-rule:nonzero;"/>
                            <path d="M436.269,208.999C436.151,208.721 436.304,208.377 436.762,208.014C436.891,208.309 436.715,208.621 436.269,208.999Z" style="fill:rgb(252,215,59);fill-rule:nonzero;"/>
                            <path d="M431.265,212.999C431.184,212.751 431.376,212.432 431.858,212.06C431.945,212.314 431.741,212.621 431.265,212.999Z" style="fill:rgb(252,215,59);fill-rule:nonzero;"/>
                        </g>
                        <path d="M41.116,170.238C47.762,165.365 54.736,160.882 61.493,156.093C72.842,148.051 82.57,138.36 90.541,126.545C101.094,141.025 111.43,155.715 121.866,170.732C122.638,173.747 120.929,175.413 119.305,177.051C110.575,185.849 101.822,194.623 93.012,203.34C91.506,204.83 90.046,206.543 87.226,206.187C71.706,194.207 56.526,182.348 41.116,170.238Z" style="fill:rgb(229,31,38);fill-rule:nonzero;"/>
                        <path d="M164.531,90.395C173.824,90.525 183.146,91.585 192.613,90.421C204.149,89.002 215.269,86.001 226.811,82.932C227.475,92.647 227.731,102.354 227.928,112.526C226.46,115.498 224.102,116.544 221.479,117.314C209.243,120.905 197.059,124.666 184.885,128.464C182.423,129.232 179.799,130.31 176.879,128.323C172.533,115.728 168.576,103.26 164.531,90.395Z" style="fill:rgb(229,31,38);fill-rule:nonzero;"/>
                        <path d="M189.037,188.647C177.44,193.98 166.275,199.585 155.211,206.244C150.381,203.078 148.154,197.939 144.887,193.626C141.193,188.749 137.816,183.631 134.191,178.3C134.618,176.03 136.295,175.102 137.776,174.099C148.509,166.832 159.06,159.301 169.789,152.03C171.805,150.664 173.772,148.884 176.907,149.72C181.658,162.523 185.961,175.206 189.037,188.647Z" style="fill:rgb(252,214,53);fill-rule:nonzero;"/>
                        <path d="M95.353,123.75C103.208,120.897 111.322,118.437 119.354,115.731C134.087,110.768 147.145,102.963 158.697,92.027C160.124,95.267 161.262,98.689 162.487,102.497C161.534,105.118 159.49,106.353 157.595,107.656C142.797,117.835 128.056,128.096 113.268,138.288C111.762,139.326 110.311,140.472 108.008,140.608C103.621,135.099 99.599,129.566 95.353,123.75Z" style="fill:rgb(247,150,32);fill-rule:nonzero;"/>
                        <path d="M107.772,140.917C110.287,136.549 114.835,134.837 118.549,132.164C131.74,122.675 145.19,113.546 158.575,104.329C159.504,103.689 160.7,103.437 162.173,102.944C163.447,105.643 164.321,108.402 165.244,111.542C164.716,113.597 163.379,114.549 162.003,115.52C147.496,125.766 132.771,135.698 118.225,145.886C116.6,147.025 114.918,148.218 112.428,147.205C110.724,145.057 109.312,143.13 107.772,140.917Z" style="fill:rgb(248,158,34);fill-rule:nonzero;"/>
                        <path d="M232.697,81.476C238.489,78.373 244.317,75.741 250.492,73.046C252.942,74.063 253.043,76.063 253.11,78.038C253.242,81.952 253.332,85.868 252.948,90.257C253.11,95.459 253.592,100.188 252.481,105.317C246.877,109.789 241.238,112.983 233.842,110.317C233.298,100.614 233.016,91.28 232.697,81.476Z" style="fill:rgb(229,31,38);fill-rule:nonzero;"/>
                        <path d="M112.241,147.297C123.308,140.477 133.424,132.405 144.228,125.36C151.009,120.937 157.069,115.41 164.92,111.988C166.217,114.685 167.139,117.448 168.081,120.591C167.645,122.729 166.249,123.647 164.873,124.584C151.6,133.625 138.42,142.801 125.227,151.957C122.974,153.521 120.733,155.567 117.247,154.232C115.413,151.884 113.879,149.747 112.241,147.297Z" style="fill:rgb(249,170,38);fill-rule:nonzero;"/>
                        <path d="M177.193,149.494C163.86,157.8 151.684,167.504 138.667,175.964C137.428,176.769 136.433,177.956 134.438,177.969C132.242,175.513 130.404,173.044 128.444,170.277C128.862,167.69 130.61,166.403 132.381,165.163C143.906,157.094 155.42,149.009 167.109,141.177C168.996,139.913 170.947,138.407 173.798,139.742C175.726,142.808 176.257,146.021 177.193,149.494Z" style="fill:rgb(251,203,49);fill-rule:nonzero;"/>
                        <path d="M117.105,154.317C125.871,150.429 132.747,143.659 140.764,138.652C149.779,133.021 157.795,125.866 167.743,121.033C169.669,123.516 170.043,126.47 170.959,129.622C170.076,132.282 168.237,133.65 166.291,134.97C154.087,143.246 141.984,151.667 129.902,160.119C128.011,161.442 126.127,162.924 123.206,162.198C120.997,159.587 119.129,157.1 117.105,154.317Z" style="fill:rgb(250,181,42);fill-rule:nonzero;"/>
                        <path d="M122.982,162.394C136.009,153.098 149.143,144.105 162.309,135.159C164.908,133.393 167.628,131.802 170.634,130.065C172,133.066 173.026,136.134 174.07,139.584C168.718,141.601 164.625,145.362 160.123,148.421C149.699,155.505 139.34,162.686 128.639,169.903C126.582,167.558 124.841,165.136 122.982,162.394Z" style="fill:rgb(251,193,46);fill-rule:nonzero;"/>
                        <path d="M132.765,186.852C135.383,189.926 137.648,193.053 140.016,196.502C140.989,199.33 139.405,200.93 137.907,202.455C131.072,209.409 124.189,216.318 117.217,223.136C115.683,224.636 114.063,226.167 111.276,225.225C108.107,222.857 105.237,220.706 102.181,218.28C101.888,215.975 103.101,214.594 104.389,213.291C112.415,205.169 120.494,197.099 128.616,189.074C129.677,188.027 130.81,187.037 132.765,186.852Z" style="fill:rgb(236,76,79);fill-rule:nonzero;"/>
                        <path d="M229.161,176.755C219.094,179.376 209.208,181.411 199.745,184.999C198.544,185.454 197.353,185.933 195.991,186.749C192.676,183.585 192.798,178.818 191.068,174.374C192.064,171.803 194.132,171.117 196.196,170.508C204.73,167.99 213.212,165.303 221.711,162.671C223.91,161.99 226.14,161.231 228.726,162.754C229.981,167.458 230.196,171.93 229.161,176.755Z" style="fill:rgb(242,108,108);fill-rule:nonzero;"/>
                        <path d="M176.566,128.568C188.726,125.642 200.351,120.995 212.372,117.693C217.339,116.329 222.225,114.666 227.509,113.064C227.956,115.696 228.042,118.4 228.064,121.552C226.421,124.048 224.27,125.183 221.845,125.912C209.835,129.522 197.819,133.11 185.847,136.841C183.816,137.475 181.664,138.091 179.38,136.262C178.262,133.642 177.452,131.292 176.566,128.568Z" style="fill:rgb(231,42,48);fill-rule:nonzero;"/>
                        <path d="M179.07,136.358C189.236,134.258 198.747,130.225 208.656,127.582C214.894,125.918 221.037,123.899 227.611,122.019C228.125,124.69 228.249,127.381 228.318,130.518C227.575,132.53 226.088,132.872 224.667,133.341C212.705,137.289 200.579,140.711 188.583,144.55C186.562,145.197 184.41,145.81 181.962,144.344C180.745,141.693 179.907,139.208 179.07,136.358Z" style="fill:rgb(233,54,58);fill-rule:nonzero;"/>
                        <path d="M181.649,144.552C194.432,140.27 207.285,136.377 220.126,132.442C222.508,131.712 224.837,130.807 227.828,130.972C229.154,133.303 228.706,135.737 228.708,138.55C227.556,140.788 225.872,141.629 223.879,142.277C212.97,145.824 201.958,149.027 191.002,152.418C188.938,153.057 186.831,153.672 184.411,152.245C182.679,149.844 182.447,147.301 181.649,144.552Z" style="fill:rgb(235,65,68);fill-rule:nonzero;"/>
                        <path d="M184.105,152.352C198.704,147.667 213.308,143.35 228.28,138.998C228.741,141.342 228.833,143.72 228.879,146.542C227.695,148.937 226.039,150.183 223.86,150.812C213.858,153.702 203.981,157.01 193.968,159.864C191.576,160.545 189.128,161.233 186.518,159.223C185.497,156.89 184.803,154.804 184.105,152.352Z" style="fill:rgb(236,76,79);fill-rule:nonzero;"/>
                        <path d="M186.234,159.334C194.928,158.522 202.725,154.482 211.041,152.404C216.81,150.963 222.427,148.917 228.472,147.063C228.896,149.688 228.959,152.391 228.977,155.543C226.985,158.538 224.03,159.203 221.211,160.091C212.885,162.716 204.534,165.261 196.167,167.75C193.984,168.399 191.702,169.22 189.221,167.297C188.024,164.592 187.151,162.142 186.234,159.334Z" style="fill:rgb(237,87,89);fill-rule:nonzero;"/>
                        <path d="M87.057,206.342C98.964,195.085 110.21,183.265 121.798,171.34C123.267,172.789 124.568,174.52 125.973,176.563C126.987,179.402 125.343,180.988 123.85,182.502C115.358,191.109 106.826,199.675 98.196,208.144C96.658,209.653 95.029,211.172 92.237,210.238C90.367,208.892 88.798,207.755 87.057,206.342Z" style="fill:rgb(231,42,48);fill-rule:nonzero;"/>
                        <path d="M92.11,210.316C93.328,209.871 94.384,209.119 95.339,208.153C105.466,197.921 115.599,187.695 125.904,177.171C128.172,178.114 127.98,180.977 130.139,182.59C130.152,184.783 129.126,186.238 127.814,187.56C118.972,196.471 110.043,205.295 101.219,214.223C100.746,214.702 100.161,215.005 99.207,215.378C96.681,213.884 94.483,212.243 92.11,210.316Z" style="fill:rgb(233,54,58);fill-rule:nonzero;"/>
                        <path d="M188.918,167.412C199.28,165.373 208.93,161.124 219.036,158.48C222.078,157.685 224.903,156.091 228.535,155.998C228.995,158.037 229.059,160.084 229.086,162.568C216.639,166.656 204.229,170.307 191.432,173.976C190.343,171.924 189.64,169.853 188.918,167.412Z" style="fill:rgb(240,97,98);fill-rule:nonzero;"/>
                        <path d="M148.939,210.516C141.56,213.967 135.808,219.478 129.455,224.091C126.333,226.357 123.37,228.841 120.16,231.512C118.775,231.034 117.565,230.272 116.169,229.258C115.941,227.787 116.267,226.645 117.11,225.789C125.383,217.391 133.254,208.583 142.699,200.951C145.403,203.719 147.988,206.42 148.939,210.516Z" style="fill:rgb(240,97,98);fill-rule:nonzero;"/>
                        <path d="M99.048,215.753C99.025,214.151 99.562,212.961 100.551,211.984C110.267,202.388 119.984,192.791 130.02,183.031C131.195,183.987 132.051,185.106 133.012,186.512C123.476,197.624 112.928,207.553 102.282,217.837C101.069,217.33 100.142,216.655 99.048,215.753Z" style="fill:rgb(235,65,68);fill-rule:nonzero;"/>
                        <path d="M252.186,174.527C246.86,175.246 241.901,175.638 236.5,176.075C233.969,172.203 235.415,167.969 235.016,163.444C239.272,158.244 246.869,156.262 252.713,158.815C254.578,164.231 255.197,169.269 252.186,174.527Z" style="fill:rgb(242,108,108);fill-rule:nonzero;"/>
                        <path d="M142.932,200.581C142.884,202.258 142.165,203.33 141.199,204.286C132.982,212.409 124.771,220.54 116.27,228.837C114.425,227.858 112.868,226.71 111.144,225.285C112.371,224.856 113.411,224.083 114.361,223.121C122.824,214.552 131.293,205.989 139.939,197.124C141.018,197.979 141.919,199.133 142.932,200.581Z" style="fill:rgb(237,87,89);fill-rule:nonzero;"/>
                        <path d="M233.478,110.373C239.526,110.434 244.585,107.045 250.587,106.066C251.495,106.308 251.905,106.736 252.322,107.714C253.147,110.509 253.351,112.875 252.293,115.644C247.069,120.337 241.292,122.225 234.354,121.256C233.799,117.597 233.588,114.197 233.478,110.373Z" style="fill:rgb(231,42,48);fill-rule:nonzero;"/>
                        <path d="M235.248,154.275C234.677,151.277 234.466,148.536 234.334,145.381C239.638,140.678 245.318,138.141 252.563,140.661C254.55,143.59 254.263,146.337 253.253,149.523C247.631,153.013 242.167,155.841 235.248,154.275Z" style="fill:rgb(237,87,89);fill-rule:nonzero;"/>
                        <path d="M251.939,140.818C245.718,140.944 240.737,144.219 234.775,144.944C234.297,142.271 234.181,139.575 234.124,136.431C239.219,132.354 244.745,130.328 251.459,131.049C254.153,133.114 254.355,135.496 253.467,138.582C253.164,139.659 252.841,140.194 251.939,140.818Z" style="fill:rgb(236,76,79);fill-rule:nonzero;"/>
                        <path d="M234.844,154.465C240.314,153.222 245.206,150.314 251.138,149.992C252.997,150.456 253.418,151.637 253.583,153.493C253.796,155.648 253.834,157.276 252.017,158.768C246.03,159.099 241.04,161.484 235.433,162.918C234.977,160.293 234.889,157.602 234.844,154.465Z" style="fill:rgb(240,97,98);fill-rule:nonzero;"/>
                        <path d="M251.492,131.685C245.518,132.362 240.717,136.056 234.582,135.986C234.114,133.612 234.046,131.241 234.043,128.43C238.67,123.835 244.144,122.479 250.552,122.944C251.182,123.315 251.412,123.502 251.898,124.061C253.194,126.801 253.528,129.139 251.492,131.685Z" style="fill:rgb(235,65,68);fill-rule:nonzero;"/>
                        <path d="M251.453,123.658C245.382,124.162 240.436,127.297 234.493,127.969C234.025,125.947 233.944,123.905 233.937,121.43C239.431,119.374 244.852,117.751 250.645,116.064C253.549,118.19 253.472,120.675 251.453,123.658Z" style="fill:rgb(233,54,58);fill-rule:nonzero;"/>
                        <path d="M358.055,97.54C374.878,105.924 392.459,112.319 411.454,115.788C413.506,118.112 412.167,120.039 411.145,121.819C409.268,125.09 407.688,128.51 405.659,132.105C403.676,136.086 402.089,139.871 399.4,143.473C398.145,146.433 397.045,149.054 394.224,150.939C391.511,151.845 389.255,151.293 387.073,150.456C376.243,146.301 365.127,142.982 354.188,139.147C352.006,138.382 349.747,137.724 348.112,135.362C351.301,122.633 354.645,110.274 358.055,97.54Z" style="fill:rgb(229,31,38);fill-rule:nonzero;"/>
                        <path d="M400.526,230.022C393.23,222.397 384.45,217.054 375.836,210.934C378.033,204.339 382.819,199.221 386.519,193.418C389.613,188.565 393.042,183.925 396.594,178.984C398.829,178.522 400.386,179.472 401.916,180.494C410.872,186.477 419.864,192.404 428.802,198.412C430.316,199.43 431.857,200.445 432.601,202.655C422.502,212.445 412.268,221.905 400.526,230.022Z" style="fill:rgb(252,214,53);fill-rule:nonzero;"/>
                        <path d="M428.491,132.145C432.016,132.37 433.621,135.216 435.884,137.033C449.016,147.574 463.983,154.986 479.09,162.897C475.036,168.034 469.387,171.417 464.418,176.088C462.063,176.151 460.292,175.37 458.586,174.226C446.982,166.45 435.354,158.708 423.73,150.961C421.772,149.656 419.893,148.245 419.818,145.259C422.704,140.751 425.457,136.583 428.491,132.145Z" style="fill:rgb(247,150,32);fill-rule:nonzero;"/>
                        <path d="M285.655,82.521C293.514,82.678 301.395,83.297 309.276,83.916C318.21,84.618 327.064,82.894 336.428,83.065C336.941,83.294 337.005,83.493 337.163,83.993C339.112,91.328 337.072,97.425 332.341,103.146C327.469,104.934 323.038,103.256 318.668,102.909C309.613,102.19 300.6,100.853 291.543,100.018C289.631,99.842 288.039,99.111 286.47,97.335C286.006,92.324 285.842,87.654 285.655,82.521Z" style="fill:rgb(248,158,34);fill-rule:nonzero;"/>
                        <path d="M332.163,102.249C334.062,96.417 335.565,90.723 337.162,84.661C342.446,87.651 347.637,91.01 353.02,94.651C349.707,107.462 346.201,119.989 342.485,132.815C335.927,135.873 331.245,132.285 326.228,128.618C324.214,125.087 325.638,121.968 326.296,118.433C328.329,112.854 327.823,106.864 332.163,102.249Z" style="fill:rgb(229,31,38);fill-rule:nonzero;"/>
                        <path d="M419.686,145.127C421.127,147.318 423.531,148.307 425.55,149.7C438.221,158.441 451.443,166.372 463.939,175.945C460.937,179.072 457.758,181.89 454.272,184.844C451.817,185.907 450.084,184.827 448.42,183.735C437.34,176.472 426.359,169.061 415.369,161.663C413.869,160.654 412.309,159.617 411.848,157.265C414.33,153.049 416.875,149.192 419.686,145.127Z" style="fill:rgb(248,166,37);fill-rule:nonzero;"/>
                        <path d="M332.081,102.088C331.299,107.326 330.039,112.54 328.592,118.088C324.616,119.757 320.871,118.541 317.133,118.151C308.769,117.279 300.384,116.576 292.069,115.261C290.432,115.003 288.76,114.916 287.182,113.299C285.665,108.024 286.265,102.951 286.113,97.457C301.315,98.685 316.459,100.375 332.081,102.088Z" style="fill:rgb(249,170,38);fill-rule:nonzero;"/>
                        <path d="M432.967,202.723C420.508,195.717 408.744,187.742 397.049,179.081C398.805,174.577 401.886,171.126 404.681,167.104C406.886,166.806 408.445,167.753 409.963,168.779C419.701,175.36 429.553,181.769 439.269,188.381C441.138,189.653 443.36,190.777 443.26,193.921C440.13,197.365 437.01,200.335 432.967,202.723Z" style="fill:rgb(251,197,47);fill-rule:nonzero;"/>
                        <path d="M443.445,194.111C440.208,190.529 435.799,188.767 432.082,186.083C423.269,179.72 413.611,174.571 405.118,167.193C407.049,163.695 409.153,160.496 411.521,157.101C425.652,166.151 439.519,175.397 453.676,184.81C450.559,187.97 447.153,190.962 443.445,194.111Z" style="fill:rgb(250,181,42);fill-rule:nonzero;"/>
                        <path d="M251.669,159.448C251.684,157.601 251.791,156.215 251.943,154.413C253.255,152.538 254.857,151.826 256.786,151.946C264.48,152.421 272.135,153.296 279.774,154.3C280.408,154.383 280.923,154.912 281.762,155.684C283.325,162.318 282.799,168.714 282.901,175.545C272.822,175.706 262.834,174.456 252.303,174.919C251.8,169.871 251.78,164.889 251.669,159.448Z" style="fill:rgb(252,214,53);fill-rule:nonzero;"/>
                        <path d="M286.783,113.469C300.545,114.005 314.254,115.002 328.076,118.13C327.837,121.301 327.268,124.181 326.644,127.468C327.361,129.786 327.034,131.433 325.015,132.991C321.509,134.583 318.408,133.204 315.32,133.09C308.066,132.824 300.91,131.419 293.664,130.897C291.603,130.748 289.381,130.314 287.459,128.327C287.013,123.308 286.871,118.621 286.783,113.469Z" style="fill:rgb(250,181,42);fill-rule:nonzero;"/>
                        <path d="M313.255,181.883C305.195,180.461 297.512,178.891 289.455,177.199C287.24,170.778 288.404,164.309 288.051,157.464C289.248,155.675 290.699,154.775 292.437,155.035C300.709,156.276 309.224,155.83 317.645,158.856C320.153,161.458 319.032,164.157 318.744,167.15C317.926,170.132 317.418,172.761 316.527,175.702C316.089,178.262 315.515,180.327 313.255,181.883Z" style="fill:rgb(252,214,53);fill-rule:nonzero;"/>
                        <path d="M287.102,128.461C299.476,129.327 311.797,130.658 324.54,131.996C325.735,132.476 326.074,133.22 326.277,134.482C325.589,137.831 325.576,140.914 324.26,144.153C323.615,145.687 322.797,146.51 321.296,147.24C316.398,149.131 311.937,147.518 307.593,146.959C301.099,146.124 294.301,146.783 287.911,143.336C286.759,138.318 287.169,133.61 287.102,128.461Z" style="fill:rgb(251,193,46);fill-rule:nonzero;"/>
                        <path d="M251.722,108.396C251.348,107.575 251.239,107.124 251.047,106.334C251.037,101.32 251.111,96.645 251.24,91.51C252.69,88.92 254.892,88.785 257.064,88.911C263.849,89.304 270.626,89.827 277.313,91.137C278.157,91.302 278.81,91.822 279.789,92.694C281.391,98.645 280.736,104.376 280.901,110.531C278.291,114.017 275.006,112.627 272.092,112.141C265.39,111.025 258.251,112.445 251.722,108.396Z" style="fill:rgb(249,170,38);fill-rule:nonzero;"/>
                        <path d="M251.372,108.462C260.974,109.016 270.493,110.006 280.431,110.996C281.007,116.007 281.163,121.019 281.273,126.493C280.036,129.013 278.006,129.147 276.01,129.05C269.08,128.713 262.23,127.566 255.337,126.838C253.984,126.695 252.888,125.888 251.886,124.321C251.667,123.909 251.36,123.942 251.207,123.96C251.082,121.613 251.11,119.247 251.078,116.441C251.108,113.633 251.198,111.265 251.372,108.462Z" style="fill:rgb(250,181,42);fill-rule:nonzero;"/>
                        <path d="M251.545,124.347C261.152,125.428 270.658,126.757 280.755,126.966C282.395,131.614 281.731,136.365 281.888,141.534C280.364,143.993 278.216,144.234 276.026,144.051C269.436,143.501 262.891,142.521 256.305,141.913C254.709,141.765 253.625,140.713 252.244,139.305C251.761,136.88 251.617,134.773 251.308,132.325C251.235,129.584 251.329,127.184 251.545,124.347Z" style="fill:rgb(251,193,46);fill-rule:nonzero;"/>
                        <path d="M287.559,143.374C298.71,143.128 309.565,145.523 321.07,146.091C322.921,147.468 323.076,149.106 322.58,151.288C322.11,154.429 321.417,157.063 319.733,159.769C319.19,160.166 318.934,160.268 318.312,160.18C308.289,158.994 298.632,157.997 288.54,156.999C287.894,152.591 287.683,148.184 287.559,143.374Z" style="fill:rgb(251,203,49);fill-rule:nonzero;"/>
                        <path d="M280.201,92.546C270.766,93.127 261.572,90.586 251.731,91.038C251.185,85.34 251.074,79.63 250.902,73.452C251.1,72.722 251.359,72.461 251.853,72.046C260.966,75.534 269.927,78.922 279.757,80.905C280.164,84.738 280.209,88.413 280.201,92.546Z" style="fill:rgb(247,150,32);fill-rule:nonzero;"/>
                        <path d="M251.841,139.321C261.563,140.213 271.197,141.691 281.393,141.997C281.962,146.354 282.09,150.713 282.17,155.535C272.299,156.516 262.69,153.913 252.441,153.997C251.894,152.924 251.8,151.85 251.615,150.384C251.574,147.286 251.627,144.581 251.588,141.434C251.59,140.546 251.684,140.101 251.841,139.321Z" style="fill:rgb(251,203,49);fill-rule:nonzero;"/>
                        <path d="M347.731,135.28C360.013,139.013 372.066,143.041 384.124,147.053C387.097,148.042 390.086,148.983 393.443,149.965C395.547,152.531 393.837,154.38 392.326,156.649C391.491,157.914 390.626,158.527 389.202,159.024C386.273,159.262 383.909,158.522 381.601,157.62C372.229,153.959 362.567,151.149 353.087,147.81C350.487,146.894 347.593,146.345 345.832,143.299C346.28,140.481 346.892,138.025 347.731,135.28Z" style="fill:rgb(231,42,48);fill-rule:nonzero;"/>
                        <path d="M345.467,143.219C360.014,147.911 374.359,152.884 389.065,158.012C390.819,161.422 389.07,163.592 386.491,165.812C383.985,166.826 381.864,166.439 379.817,165.75C369.342,162.225 358.794,158.914 348.466,154.96C346.234,154.105 344.21,153.095 343.706,150.12C344.305,147.654 344.785,145.577 345.467,143.219Z" style="fill:rgb(233,54,58);fill-rule:nonzero;"/>
                        <path d="M343.604,150.026C346.423,153.353 350.804,153.316 354.428,154.63C364.561,158.306 374.854,161.539 385.463,164.966C387.269,166.777 386.352,168.395 385.288,170.367C384.44,171.893 383.746,173.046 382.111,173.862C380.577,174.323 379.406,174.288 378.294,173.912C367.455,170.244 356.493,166.932 345.84,162.728C343.794,161.921 341.907,160.843 341.63,157.917C342.244,155.119 342.813,152.72 343.604,150.026Z" style="fill:rgb(235,65,68);fill-rule:nonzero;"/>
                        <path d="M341.457,157.827C344.635,161.381 349.408,161.661 353.453,163.202C362.547,166.667 371.825,169.65 381.371,172.906C383.568,176.618 381.072,178.574 378.403,180.791C377.369,181.015 378.208,181.19 377.56,181.09C364.308,179.035 352.166,173.654 339.955,168.485C339.692,168.374 339.568,167.97 339.202,167.338C339.742,164.045 340.491,161.091 341.457,157.827Z" style="fill:rgb(236,76,79);fill-rule:nonzero;"/>
                        <path d="M334.693,183.307C335.105,180.488 335.728,178.009 336.563,175.229C338.302,173.591 340.082,173.384 341.925,173.976C352.052,177.225 362.295,180.141 372.071,184.404C372.835,184.737 373.456,185.318 374.291,186.265C375.887,191.022 373.855,193.81 369.685,195.855C361.569,194.582 354.321,191.706 347.084,188.903C342.974,187.311 338.265,186.997 334.693,183.307Z" style="fill:rgb(240,97,98);fill-rule:nonzero;"/>
                        <path d="M369.092,195.733C370.962,193.063 372.462,190.397 374.03,187.381C373.393,183.955 374.521,181.778 377.631,180.212C379.128,177.867 380.335,175.741 381.628,173.298C382.284,172.07 382.854,171.158 383.667,170.036C387.597,169.045 390.262,170.862 392.829,173.637C385.92,185.216 378.342,196.078 370.292,206.992C368.376,206.329 366.76,205.497 365.007,204.343C364.622,200.548 365.655,197.67 369.092,195.733Z" style="fill:rgb(252,214,53);fill-rule:nonzero;"/>
                        <path d="M377.558,179.926C376.814,182.193 375.706,184.393 374.349,186.812C361.929,183.021 349.759,179.01 337.182,174.964C337.385,172.496 337.996,170.062 338.799,167.314C351.726,171.286 364.46,175.573 377.558,179.926Z" style="fill:rgb(237,87,89);fill-rule:nonzero;"/>
                        <path d="M369.211,195.382C368.508,198.556 367.11,201.157 365.153,203.82C354.668,198.792 344.496,193.5 333.476,189.161C332.758,187.062 333.712,185.355 334.326,183.261C346.348,185.921 357.833,189.966 369.211,195.382Z" style="fill:rgb(242,108,108);fill-rule:nonzero;"/>
                        <path d="M403.928,132.304C406.425,126.815 409.013,121.714 411.697,116.281C412.792,115.924 413.793,115.897 415.15,115.823C418.557,119.598 421.607,123.42 424.834,127.511C422.481,131.367 419.952,134.953 417.163,138.754C412.251,140.69 407.225,138.241 403.928,132.304Z" style="fill:rgb(247,150,32);fill-rule:nonzero;"/>
                        <path d="M391.023,156.322C391.813,154.182 392.741,152.406 393.744,150.308C395.005,147.775 396.191,145.565 397.644,143.147C403.195,141.682 406.226,145.276 409.685,148.662C407.789,153.363 405.009,157.246 401.482,160.963C396.648,162.322 393.905,159.504 391.023,156.322Z" style="fill:rgb(250,181,42);fill-rule:nonzero;"/>
                        <path d="M390.651,156.101C394.595,156.575 397.305,159.19 400.85,160.94C399.753,165.957 396.038,169.405 393.23,173.784C389.541,174.113 387.272,171.524 384.158,170.08C384.505,168.425 385.101,167.025 385.768,165.305C386.956,162.933 388.071,160.881 389.306,158.498C389.757,157.526 390.087,156.885 390.651,156.101Z" style="fill:rgb(251,193,46);fill-rule:nonzero;"/>
                        <path d="M410.039,148.705C405.355,148.526 402.619,144.571 398.228,143.095C399.716,139.415 401.522,135.891 403.582,132.142C408.023,134.13 411.255,138.022 416.541,138.958C415.007,142.352 413.001,145.658 410.039,148.705Z" style="fill:rgb(248,158,34);fill-rule:nonzero;"/>
                        <path d="M317.93,160.389C317.945,159.992 318.257,159.922 318.415,159.901C324.337,157.306 328.873,159.957 333.512,163.653C333.102,166.501 332.42,169.025 331.56,171.852C325.681,174.788 321.267,172.046 316.792,168.319C317.031,165.548 317.473,163.167 317.93,160.389Z" style="fill:rgb(237,87,89);fill-rule:nonzero;"/>
                        <path d="M324.82,135.278C324.932,134.149 324.962,133.434 324.977,132.361C325.395,130.806 325.827,129.609 326.424,128.143C331.52,129.672 336.246,132.058 341.869,133.07C341.657,135.537 341.039,137.96 340.221,140.693C334.884,142.938 327.492,140.369 324.82,135.278Z" style="fill:rgb(231,42,48);fill-rule:nonzero;"/>
                        <path d="M333.912,163.621C328.998,162.64 324.212,161.303 319,159.923C319.117,157.428 319.66,154.977 320.371,152.203C326.361,149.241 330.944,152.098 335.682,155.62C335.282,158.414 334.661,160.84 333.912,163.621Z" style="fill:rgb(236,76,79);fill-rule:nonzero;"/>
                        <path d="M336.071,155.656C331.067,154.647 326.231,153.304 320.966,151.922C320.809,150.231 321.081,148.581 321.45,146.523C321.785,145.503 322.023,144.891 322.406,144.075C328.302,141.629 332.843,144.479 337.664,147.696C338.068,150.599 336.969,152.917 336.071,155.656Z" style="fill:rgb(235,65,68);fill-rule:nonzero;"/>
                        <path d="M338.022,147.632C332.758,147.922 328.283,145.171 322.961,143.949C323.189,141.076 323.829,138.28 324.685,135.174C328.9,138.765 334.527,138.77 339.649,140.938C340.328,143.386 338.719,145.177 338.022,147.632Z" style="fill:rgb(233,54,58);fill-rule:nonzero;"/>
                        <path d="M316.413,168.238C321.239,169.302 325.89,170.676 330.961,172.103C331.246,174.724 330.033,176.948 329.047,179.631C323.497,182.392 319.259,179.494 314.798,176.312C315.143,173.474 315.69,171.011 316.413,168.238Z" style="fill:rgb(240,97,98);fill-rule:nonzero;"/>
                        <path d="M314.423,176.232C319.401,176.365 323.658,178.698 328.619,179.933C329.082,182.317 328.199,184.382 327.111,186.757C322.581,184.927 317.842,184.072 313.07,182.375C313.336,180.197 313.793,178.362 314.423,176.232Z" style="fill:rgb(242,108,108);fill-rule:nonzero;"/>
                    </g>
                </g>
            </g>
            <g transform="matrix(1.39247,0,0,1.39247,198.938,113.078)">
                <path d="M279.606,397.693C280.234,399.368 280.608,400.769 280.98,402.537C280.633,405.35 278.616,406.188 276.747,406.399C272.129,406.921 270.475,409.297 271.226,413.715C271.394,414.701 271.171,415.677 270.331,416.787C268.558,418.281 266.695,418.557 264.526,418.99C262.362,418.061 262.016,416.455 262.218,414.219C262.381,410.089 260.99,407.833 256.857,407.802C255.187,407.789 253.687,406.911 252.276,405.357C250.096,403.306 251.501,401.493 252.081,399.316C254.477,397.483 254.59,395.553 254.12,392.944C252.95,386.454 250.05,380.227 251.089,373.06C252.226,371.339 253.587,370.604 255.638,370.325C256.592,370.397 257.089,370.604 257.814,371.222C259.381,373.261 260.138,375.217 260.444,377.756C261.836,382.547 263.026,386.983 263.374,391.962C264.133,394.101 264.411,397.047 266.419,396.849C268.833,396.611 267.491,393.541 268.152,391.819C268.388,391.205 268.381,390.53 268.37,389.502C268.691,385.683 268.754,382.211 269.294,378.358C269.102,375.762 270.261,373.993 271.333,371.767C272.38,370.845 273.261,370.639 274.624,370.564C276.3,370.783 277.284,371.355 278.135,372.784C279.833,379.577 277.488,385.953 278.071,392.372C278.232,394.149 277.654,396.053 279.606,397.693Z" style="fill:rgb(73,69,63);fill-rule:nonzero;"/>
            </g>
            <g transform="matrix(1.39247,0,0,1.39247,198.938,113.078)">
                <path d="M252.165,372.58C253.731,380.442 255.182,387.947 256.935,395.38C257.904,399.486 257.327,401.265 252.503,399.047C251.42,394.964 251.049,390.86 249.819,387.032C248.908,384.195 245.713,384.197 243.172,384.041C234.952,383.535 234.95,383.593 232.669,375.292C231.468,370.919 230.213,366.557 230.04,361.564C231.192,358.258 233.865,357.61 236.804,356.742C239.589,356.819 241.501,358.129 242.199,360.16C244.033,365.5 246.648,370.002 252.165,372.58Z" style="fill:rgb(253,158,1);fill-rule:nonzero;"/>
            </g>
            <g transform="matrix(1.39247,0,0,1.39247,198.938,113.078)">
                <path d="M288.679,417.835C296.391,427.26 298.304,438.121 297.367,449.91C294.118,452.956 291.043,452.551 287.522,450.319C284.798,447.583 283.935,444.469 282.976,441.391C281.403,436.343 279.744,431.327 276.928,426.398C279.456,421.574 283.504,419.15 288.679,417.835Z" style="fill:rgb(227,80,5);fill-rule:nonzero;"/>
            </g>
            <g transform="matrix(1.39247,0,0,1.39247,198.938,113.078)">
                <path d="M279.92,397.598C276.152,399.344 275.083,398.352 275.602,394.258C276.417,387.829 276.518,381.31 277.018,374.396C280.072,372.226 281.99,374.377 283.277,376.231C286.306,380.591 289.493,382.151 294.019,378.403C294.626,377.9 295.572,377.943 296.761,378.016C299.57,379.068 301.44,380.603 301.998,383.721C300.193,389.755 296.533,393.81 291.192,396.273C287.231,398.1 283.646,396.995 280.214,394.103C280.124,395.304 280.052,396.266 279.92,397.598Z" style="fill:rgb(243,125,0);fill-rule:nonzero;"/>
            </g>
            <g transform="matrix(1.39247,0,0,1.39247,198.938,113.078)">
                <path d="M288.998,417.531C285.56,421.043 281.813,423.821 277.224,425.963C274.053,423.638 273.264,419.82 270.383,417.138C267.721,406.505 267.722,406.509 277.904,403.963C278.707,403.763 279.482,403.452 280.623,403.048C283.636,407.661 286.295,412.419 288.998,417.531Z" style="fill:rgb(234,109,2);fill-rule:nonzero;"/>
            </g>
            <g transform="matrix(1.39247,0,0,1.39247,198.938,113.078)">
                <path d="M263.543,412.74C263.906,414.71 263.981,416.434 264.112,418.584C259.263,425.988 255.795,433.538 254.893,442.548C252.278,445.162 250.613,443.856 249.512,441.424C248.706,439.644 248.36,437.654 248.112,435.72C247.681,432.361 246.103,431.07 242.478,432.109C241.037,428.662 244.104,426.351 244.548,423.145C248.501,419.421 252.626,416.528 256.923,413.878C258.841,412.694 260.772,411.238 263.543,412.74Z" style="fill:rgb(234,109,2);fill-rule:nonzero;"/>
            </g>
            <g transform="matrix(1.39247,0,0,1.39247,198.938,113.078)">
                <path d="M242.085,432.443C243.542,430.751 244.038,427.965 246.498,428.644C248.75,429.266 249.459,431.557 249.906,433.694C250.341,435.776 250.795,437.87 250.989,439.982C251.172,441.985 252.019,443.011 254.445,442.957C254.849,445.371 255.674,447.836 254.147,450.501C251.965,455.596 250.279,456.19 245.224,453.48C242.522,451.838 241.815,449.814 241.935,447.088C242.142,442.369 242.008,437.635 242.085,432.443Z" style="fill:rgb(227,80,5);fill-rule:nonzero;"/>
            </g>
            <g transform="matrix(1.39247,0,0,1.39247,198.938,113.078)">
                <path d="M263.876,412.553C259.091,413.761 256.02,417.505 252.04,419.637C249.915,420.775 248.256,422.806 245.242,422.954C246.633,417 249.285,411.411 251.992,405.476C255.086,405.386 258.173,405.571 261.236,405.952C265.483,406.481 263.239,409.964 263.876,412.553Z" style="fill:rgb(243,125,0);fill-rule:nonzero;"/>
            </g>
            <g transform="matrix(1.39247,0,0,1.39247,198.938,113.078)">
                <path d="M287.149,450.327C290.147,450.004 293.134,450.035 296.568,450.111C298.251,452.281 299.547,454.374 300.706,456.54C301.893,458.759 303.187,461.408 300.792,463.277C298.425,465.122 295.767,463.5 294.292,461.587C291.647,458.156 288.824,454.77 287.149,450.327Z" style="fill:rgb(73,69,63);fill-rule:nonzero;"/>
            </g>
            <g transform="matrix(1.39247,0,0,1.39247,198.938,113.078)">
                <path d="M244.796,453.46C247.886,453.025 251.183,454.615 253.661,451.057C254.25,451.397 254.977,452.226 254.817,452.468C252.097,456.576 251.85,462.035 247.879,465.407C246.653,466.448 245.22,467.214 243.364,466.153C241.358,465.005 241.873,463.193 242.158,461.778C242.706,459.057 243.772,456.441 244.796,453.46Z" style="fill:rgb(73,69,63);fill-rule:nonzero;"/>
            </g>
            <g transform="matrix(1.39247,0,0,1.39247,198.938,113.078)">
                <path d="M227.684,351.058C230.066,351.214 231.924,352.536 234.48,351.983C237.723,352.666 238.487,354.52 237.327,357.565C235.108,359.242 233.152,360.564 230.421,361.103C224.285,359.114 226.261,354.995 227.684,351.058Z" style="fill:rgb(73,69,63);fill-rule:nonzero;"/>
            </g>
            <g transform="matrix(1.39247,0,0,1.39247,198.938,113.078)">
                <path d="M302.353,384.022C300.438,382.559 298.887,381.02 297.126,379.23C295.602,376.859 296.342,375.306 298.675,374C301.106,375.455 303.262,374.303 305.718,374.121C309.284,377.136 307.807,381.516 302.353,384.022Z" style="fill:rgb(73,69,63);fill-rule:nonzero;"/>
            </g>
            <g transform="matrix(1.39247,0,0,1.39247,198.938,113.078)">
                <path d="M262.421,393.233C261,388.23 259.891,383.472 258.751,378.291C262.481,375.566 266.372,376.013 270.644,377.59C270.804,381.656 270.624,385.45 270.311,389.636C268.014,391.864 266.247,394.557 262.421,393.233Z" style="fill:rgb(253,158,1);fill-rule:nonzero;"/>
            </g>
            <g transform="matrix(1.39247,0,0,1.39247,198.938,113.078)">
                <path d="M271.076,377.515C267.183,378.538 263.386,379.479 259.143,377.924C258.232,376.121 257.742,374.374 257.16,372.283C257.61,371.746 258.154,371.552 258.957,371.228C259.371,370.923 259.526,370.749 260.015,370.475C263.186,370.995 265.946,372.049 269.211,372.07C269.9,372.192 270.299,372.133 270.989,372.067C271.939,373.778 271.269,375.467 271.076,377.515Z" style="fill:rgb(227,80,5);fill-rule:nonzero;"/>
            </g>
            <g transform="matrix(1.39247,0,0,1.39247,198.938,113.078)">
                <path d="M262.086,393.39C264.751,392.516 266.526,389.896 269.798,390.036C270.154,391.852 270.164,393.677 270.097,395.499C270.014,397.762 270.479,400.131 266.834,400.38C263.447,400.611 262.987,398.64 262.573,396.226C262.433,395.41 262.234,394.604 262.086,393.39Z" style="fill:rgb(243,125,0);fill-rule:nonzero;"/>
            </g>
            <g transform="matrix(1.39247,0,0,1.39247,198.938,113.078)">
                <path d="M261.169,371.742C260.617,371.851 260.323,371.727 259.623,371.35C257.139,367.899 256.803,364.393 257.301,360.287C262.056,353.531 268.407,352.945 273.5,358.594C273.368,362.952 275.673,367.646 270.839,371.031C269.066,369.912 269.056,368.18 268.662,366.583C268.271,364.998 267.353,363.804 265.586,363.864C263.862,363.923 263.007,365.174 262.48,366.679C261.931,368.247 262.322,370.018 261.169,371.742Z" style="fill:rgb(73,69,63);fill-rule:nonzero;"/>
            </g>
            <g transform="matrix(1.39247,0,0,1.39247,198.938,113.078)">
                <path d="M261.03,372.203C260.847,371.652 260.829,371.312 260.713,371.009C259.487,367.798 259.693,364.769 262.396,362.451C264.116,360.975 266.345,360.574 268.373,361.926C271.465,363.988 271.475,367.085 270.622,370.716C270.175,371.313 269.964,371.555 269.654,372.048C266.788,375.596 263.977,374.437 261.03,372.203Z" style="fill:rgb(249,200,126);fill-rule:nonzero;"/>
            </g>
        </g>
    </g>
</svg>
